<svg xmlns="http://www.w3.org/2000/svg" version="1.1" xmlns:xlink="http://www.w3.org/1999/xlink" xmlns:svgjs="http://svgjs.com/svgjs" width="1440" height="600" preserveAspectRatio="none" viewBox="0 0 1440 600">
    <g mask="url(&quot;#SvgjsMask3938&quot;)" fill="none">
        <rect width="96" height="96" clip-path="url(&quot;#SvgjsClipPath3939&quot;)" x="1127.01" y="379.5" fill="url(#SvgjsPattern3940)" transform="rotate(91.96, 1175.01, 427.5)"></rect>
        <rect width="296.64" height="296.64" clip-path="url(&quot;#SvgjsClipPath3941&quot;)" x="1212.89" y="-73.75" fill="url(#SvgjsPattern3942)" transform="rotate(165.75, 1361.21, 74.57)"></rect>
        <rect width="84.4" height="84.4" clip-path="url(&quot;#SvgjsClipPath3943&quot;)" x="65.2" y="396.03" fill="url(#SvgjsPattern3944)" transform="rotate(139.44, 107.4, 438.23)"></rect>
        <path d="M832.86 573.19a5.6 5.6 0 1 0 11.16 0.98 5.6 5.6 0 1 0-11.16-0.98zM848.8 574.59a5.6 5.6 0 1 0 11.15 0.99 5.6 5.6 0 1 0-11.15-0.99zM864.73 576a5.6 5.6 0 1 0 11.16 0.98 5.6 5.6 0 1 0-11.16-0.98zM880.67 577.4a5.6 5.6 0 1 0 11.16 0.99 5.6 5.6 0 1 0-11.16-0.99zM799.58 586.31a5.6 5.6 0 1 0 11.15 0.99 5.6 5.6 0 1 0-11.15-0.99zM815.51 587.72a5.6 5.6 0 1 0 11.16 0.98 5.6 5.6 0 1 0-11.16-0.98zM831.45 589.13a5.6 5.6 0 1 0 11.16 0.98 5.6 5.6 0 1 0-11.16-0.98zM847.39 590.53a5.6 5.6 0 1 0 11.16 0.98 5.6 5.6 0 1 0-11.16-0.98z" fill="rgba(178, 135, 120, 0.69)"></path>
        <path d="M950.49 402.39a5.6 5.6 0 1 0-0.86 11.17 5.6 5.6 0 1 0 0.86-11.17zM949.26 418.35a5.6 5.6 0 1 0-0.86 11.16 5.6 5.6 0 1 0 0.86-11.16zM948.03 434.3a5.6 5.6 0 1 0-0.86 11.16 5.6 5.6 0 1 0 0.86-11.16zM946.8 450.25a5.6 5.6 0 1 0-0.86 11.17 5.6 5.6 0 1 0 0.86-11.17zM937 369.26a5.6 5.6 0 1 0-0.86 11.16 5.6 5.6 0 1 0 0.86-11.16zM935.77 385.21a5.6 5.6 0 1 0-0.86 11.17 5.6 5.6 0 1 0 0.86-11.17zM934.54 401.16a5.6 5.6 0 1 0-0.86 11.17 5.6 5.6 0 1 0 0.86-11.17zM933.31 417.11a5.6 5.6 0 1 0-0.86 11.17 5.6 5.6 0 1 0 0.86-11.17z" stroke="rgba(178, 135, 120, 0.69)" stroke-width="1" stroke-dasharray="3, 2"></path>
        <rect width="139.8" height="139.8" clip-path="url(&quot;#SvgjsClipPath3945&quot;)" x="456.36" y="114.02" fill="url(#SvgjsPattern3946)" transform="rotate(1, 526.26, 183.92)"></rect>
        <rect width="360" height="360" clip-path="url(&quot;#SvgjsClipPath3947&quot;)" x="802.49" y="142.36" fill="url(#SvgjsPattern3948)" transform="rotate(44.87, 982.49, 322.36)"></rect>
        <rect width="214" height="214" clip-path="url(&quot;#SvgjsClipPath3949&quot;)" x="470.59" y="398.89" fill="url(#SvgjsPattern3950)" transform="rotate(13.29, 577.59, 505.89)"></rect>
        <circle r="50" cx="440.83" cy="140.4" stroke="rgba(178, 135, 120, 0.69)" stroke-width="1" stroke-dasharray="2, 2"></circle>
        <circle r="50" cx="716.42" cy="287.53" stroke="#d3b714" stroke-width="2.1" stroke-dasharray="4, 4"></circle>
        <path d="M1335.58 591.85L1348.11 589.2 1353.44 600.85 1365.97 598.2 1371.3 609.85 1383.83 607.2 1389.16 618.85" stroke="rgba(178, 135, 120, 0.69)" stroke-width="1" stroke-dasharray="2, 2"></path>
    </g>
    <defs>
        <mask id="SvgjsMask3938">
            <rect width="1440" height="600" fill="#ffffff"></rect>
        </mask>
        <pattern x="0" y="0" width="96" height="6" patternUnits="userSpaceOnUse" id="SvgjsPattern3940">
            <rect width="96" height="3" x="0" y="0" fill="#d3b714"></rect>
            <rect width="96" height="3" x="0" y="3" fill="rgba(0, 0, 0, 0)"></rect>
        </pattern>
        <clipPath id="SvgjsClipPath3939">
            <circle r="24" cx="1175.01" cy="427.5"></circle>
        </clipPath>
        <pattern x="0" y="0" width="296.64" height="8.24" patternUnits="userSpaceOnUse" id="SvgjsPattern3942">
            <rect width="296.64" height="4.12" x="0" y="0" fill="rgba(114, 197, 255, 0.7)"></rect>
            <rect width="296.64" height="4.12" x="0" y="4.12" fill="rgba(0, 0, 0, 0)"></rect>
        </pattern>
        <clipPath id="SvgjsClipPath3941">
            <circle r="74.16" cx="1361.21" cy="74.57"></circle>
        </clipPath>
        <pattern x="0" y="0" width="8.44" height="8.44" patternUnits="userSpaceOnUse" id="SvgjsPattern3944">
            <path d="M4.22 1L4.22 7.4399999999999995M1 4.22L7.4399999999999995 4.22" stroke="rgba(114, 197, 255, 0.7)" fill="none" stroke-width="1"></path>
        </pattern>
        <clipPath id="SvgjsClipPath3943">
            <circle r="21.1" cx="107.4" cy="438.23"></circle>
        </clipPath>
        <pattern x="0" y="0" width="13.98" height="13.98" patternUnits="userSpaceOnUse" id="SvgjsPattern3946">
            <path d="M0 13.98L6.99 0L13.98 13.98" stroke="rgba(178, 135, 120, 0.69)" fill="none"></path>
        </pattern>
        <clipPath id="SvgjsClipPath3945">
            <circle r="34.95" cx="526.26" cy="183.92"></circle>
        </clipPath>
        <pattern x="0" y="0" width="6" height="6" patternUnits="userSpaceOnUse" id="SvgjsPattern3948">
            <path d="M3 1L3 5M1 3L5 3" stroke="rgba(114, 197, 255, 0.7)" fill="none" stroke-width="1"></path>
        </pattern>
        <clipPath id="SvgjsClipPath3947">
            <circle r="90" cx="982.49" cy="322.36"></circle>
        </clipPath>
        <pattern x="0" y="0" width="10.7" height="10.7" patternUnits="userSpaceOnUse" id="SvgjsPattern3950">
            <path d="M5.35 1L5.35 9.7M1 5.35L9.7 5.35" stroke="rgba(114, 197, 255, 0.7)" fill="none" stroke-width="1.59"></path>
        </pattern>
        <clipPath id="SvgjsClipPath3949">
            <circle r="53.5" cx="577.59" cy="505.89"></circle>
        </clipPath>
    </defs>
</svg>